# xmcd
#
# Track frame offsets:
#	150
#	15316
#	29743
#	43212
#	56677
#	74444
#	90135
#	99542
#	115721
#	128427
#	141429
#	153117
#	165227
#	183051
#	195406
#	205132
#
# Disc length: 3027 seconds
#
# Revision: 1
# Processed by: cddbd v1.5.2PL0 Copyright (c) Steve Scherf et al.
# Submitted via: audiograbber 1.83.01
#
DISCID=c50bd110
DTITLE=Various Artist - Country Party CD3 Hits on Banjo
DYEAR=1999
DGENRE=Folklore
TTITLE0=5,6,7,8
TTITLE1=Cotton Eye Joe
TTITLE2=Last Thing On My Mind
TTITLE3=Annie's Song
TTITLE4=Swamp Thing
TTITLE5=Calypso
TTITLE6=Ruby, Don't Take Your Love To Town
TTITLE7=Hello Mary Lou
TTITLE8=Lucille
TTITLE9=Old Prop in An Oak
TTITLE10=Jolene
TTITLE11=Lovebug
TTITLE12=Ring Of Fire
TTITLE13=Seven Lonely Days
TTITLE14=Thank God I'm A Country Boy
TTITLE15=New Kid in Town
EXTD=
EXTT0=
EXTT1=
EXTT2=
EXTT3=
EXTT4=
EXTT5=
EXTT6=
EXTT7=
EXTT8=
EXTT9=
EXTT10=
EXTT11=
EXTT12=
EXTT13=
EXTT14=
EXTT15=
PLAYORDER=
